<?xml version="1.0" encoding="UTF-8" standalone="no"?>
<!-- Created with Inkscape (http://www.inkscape.org/) -->

<svg
   xmlns:dc="http://purl.org/dc/elements/1.1/"
   xmlns:cc="http://creativecommons.org/ns#"
   xmlns:rdf="http://www.w3.org/1999/02/22-rdf-syntax-ns#"
   xmlns:svg="http://www.w3.org/2000/svg"
   xmlns="http://www.w3.org/2000/svg"
   xmlns:sodipodi="http://sodipodi.sourceforge.net/DTD/sodipodi-0.dtd"
   xmlns:inkscape="http://www.inkscape.org/namespaces/inkscape"
   width="88.165123mm"
   height="40.28281mm"
   viewBox="0 0 88.165123 40.28281"
   version="1.1"
   id="svg214"
   inkscape:version="0.92.3 (2405546, 2018-03-11)"
   sodipodi:docname="base - Copy.svgz.2019_08_03_15_00_53.0.svg">
  <defs
     id="defs208">
    <filter
       style="color-interpolation-filters:sRGB"
       inkscape:label="Invert"
       id="filter176">
      <feColorMatrix
         type="hueRotate"
         values="180"
         result="color1"
         id="feColorMatrix172" />
      <feColorMatrix
         values="-1 0 0 0 1 0 -1 0 0 1 0 0 -1 0 1 -0.21 -0.72 -0.07 2 0 "
         result="color2"
         id="feColorMatrix174" />
    </filter>
    <filter
       style="color-interpolation-filters:sRGB"
       inkscape:label="Colorize"
       id="filter182">
      <feColorMatrix
         type="hueRotate"
         values="180"
         result="color1"
         id="feColorMatrix178" />
      <feColorMatrix
         values="-1 0 0 0 1 0 -1 0 0 1 0 0 -1 0 1 -0.21 -0.72 -0.07 2 0 "
         result="fbSourceGraphic"
         id="feColorMatrix180" />
      <feColorMatrix
         result="fbSourceGraphicAlpha"
         in="fbSourceGraphic"
         values="0 0 0 -1 0 0 0 0 -1 0 0 0 0 -1 0 0 0 0 1 0"
         id="feColorMatrix1200" />
      <feComposite
         in2="fbSourceGraphic"
         id="feComposite1202"
         operator="arithmetic"
         k1="0"
         k2="1"
         result="composite1"
         in="fbSourceGraphic"
         k3="0"
         k4="0" />
      <feColorMatrix
         id="feColorMatrix1204"
         in="composite1"
         values="1"
         type="saturate"
         result="colormatrix1" />
      <feFlood
         id="feFlood1206"
         flood-opacity="1"
         flood-color="rgb(0,255,0)"
         result="flood1" />
      <feBlend
         in2="colormatrix1"
         id="feBlend1208"
         in="flood1"
         mode="multiply"
         result="blend1" />
      <feBlend
         in2="blend1"
         id="feBlend1210"
         mode="screen"
         result="blend2" />
      <feColorMatrix
         id="feColorMatrix1212"
         in="blend2"
         values="1"
         type="saturate"
         result="colormatrix2" />
      <feComposite
         in2="fbSourceGraphic"
         id="feComposite1214"
         in="colormatrix2"
         operator="in"
         result="composite2" />
    </filter>
    <filter
       style="color-interpolation-filters:sRGB"
       inkscape:label="Invert"
       id="filter188">
      <feColorMatrix
         type="hueRotate"
         values="180"
         result="color1"
         id="feColorMatrix184" />
      <feColorMatrix
         values="-1 0 0 0 1 0 -1 0 0 1 0 0 -1 0 1 -0.21 -0.72 -0.07 2 0 "
         result="color2"
         id="feColorMatrix186" />
    </filter>
    <filter
       style="color-interpolation-filters:sRGB"
       inkscape:label="Invert"
       id="filter194">
      <feColorMatrix
         type="hueRotate"
         values="180"
         result="color1"
         id="feColorMatrix190" />
      <feColorMatrix
         values="-1 0 0 0 1 0 -1 0 0 1 0 0 -1 0 1 -0.21 -0.72 -0.07 2 0 "
         result="color2"
         id="feColorMatrix192" />
    </filter>
    <filter
       style="color-interpolation-filters:sRGB"
       inkscape:label="Invert"
       id="filter200">
      <feColorMatrix
         type="hueRotate"
         values="180"
         result="color1"
         id="feColorMatrix196" />
      <feColorMatrix
         values="-1 0 0 0 1 0 -1 0 0 1 0 0 -1 0 1 -0.21 -0.72 -0.07 2 0 "
         result="color2"
         id="feColorMatrix198" />
    </filter>
    <filter
       style="color-interpolation-filters:sRGB"
       inkscape:label="Invert"
       id="filter206">
      <feColorMatrix
         type="hueRotate"
         values="180"
         result="color1"
         id="feColorMatrix202" />
      <feColorMatrix
         values="-1 0 0 0 1 0 -1 0 0 1 0 0 -1 0 1 -0.21 -0.72 -0.07 2 0 "
         result="color2"
         id="feColorMatrix204" />
    </filter>
    <filter
       style="color-interpolation-filters:sRGB"
       inkscape:label="Invert"
       id="filter212">
      <feColorMatrix
         type="hueRotate"
         values="180"
         result="color1"
         id="feColorMatrix208" />
      <feColorMatrix
         values="-1 0 0 0 1 0 -1 0 0 1 0 0 -1 0 1 -0.21 -0.72 -0.07 2 0 "
         result="color2"
         id="feColorMatrix210" />
    </filter>
    <filter
       style="color-interpolation-filters:sRGB"
       inkscape:label="Invert"
       id="filter218">
      <feColorMatrix
         type="hueRotate"
         values="180"
         result="color1"
         id="feColorMatrix214" />
      <feColorMatrix
         values="-1 0 0 0 1 0 -1 0 0 1 0 0 -1 0 1 -0.21 -0.72 -0.07 2 0 "
         result="color2"
         id="feColorMatrix216" />
    </filter>
    <filter
       style="color-interpolation-filters:sRGB"
       inkscape:label="Colorize"
       id="filter1459">
      <feComposite
         in2="SourceGraphic"
         operator="arithmetic"
         k1="0"
         k2="1"
         result="composite1"
         id="feComposite1445"
         k3="0"
         k4="0" />
      <feColorMatrix
         in="composite1"
         values="1"
         type="saturate"
         result="colormatrix1"
         id="feColorMatrix1447" />
      <feFlood
         flood-opacity="1"
         flood-color="rgb(255,0,0)"
         result="flood1"
         id="feFlood1449" />
      <feBlend
         in="flood1"
         in2="colormatrix1"
         mode="multiply"
         result="blend1"
         id="feBlend1451" />
      <feBlend
         in2="blend1"
         mode="screen"
         result="blend2"
         id="feBlend1453" />
      <feColorMatrix
         in="blend2"
         values="1"
         type="saturate"
         result="colormatrix2"
         id="feColorMatrix1455" />
      <feComposite
         in="colormatrix2"
         in2="SourceGraphic"
         operator="in"
         result="composite2"
         id="feComposite1457" />
    </filter>
  </defs>
  <sodipodi:namedview
     id="base"
     pagecolor="#ffffff"
     bordercolor="#666666"
     borderopacity="1.0"
     inkscape:pageopacity="0.0"
     inkscape:pageshadow="2"
     inkscape:zoom="1.979899"
     inkscape:cx="190.18618"
     inkscape:cy="39.766757"
     inkscape:document-units="mm"
     inkscape:current-layer="layer1"
     showgrid="false"
     inkscape:window-width="1920"
     inkscape:window-height="1017"
     inkscape:window-x="3832"
     inkscape:window-y="-8"
     inkscape:window-maximized="1"
     fit-margin-top="0"
     fit-margin-left="0"
     fit-margin-right="0"
     fit-margin-bottom="0" />
  <metadata
     id="metadata211">
    <rdf:RDF>
      <cc:Work
         rdf:about="">
        <dc:format>image/svg+xml</dc:format>
        <dc:type
           rdf:resource="http://purl.org/dc/dcmitype/StillImage" />
        <dc:title></dc:title>
      </cc:Work>
    </rdf:RDF>
  </metadata>
  <g
     inkscape:label="Layer 1"
     inkscape:groupmode="layer"
     id="layer1"
     transform="translate(-51.923392,-144.91088)">
    <g
       id="g1509">
      <g
         style="filter:url(#filter218)"
         transform="matrix(0.26458333,0,0,0.26458333,-0.99988831,108.39309)"
         id="g155">
        <g
           id="g153">
          <path
             d="m 337.5,240.6 c 6.9,0 12.5,5.6 12.5,12.5 v 18.3 c 0,6.9 -5.6,12.5 -12.5,12.5 -6.9,0 -12.5,-5.6 -12.5,-12.5 v -18.3 c 0,-6.9 5.6,-12.5 12.5,-12.5 m 0,-1.7 c -7.8,0 -14.2,6.4 -14.2,14.2 v 18.3 c 0,7.8 6.4,14.2 14.2,14.2 7.8,0 14.2,-6.4 14.2,-14.2 v -18.3 c 0,-7.9 -6.4,-14.2 -14.2,-14.2 z"
             id="path149"
             inkscape:connector-curvature="0" />
          <path
             d="m 337.5,240.6 c -6.9,0 -12.5,5.6 -12.5,12.5 v 18.3 c 0,6.9 5.6,12.5 12.5,12.5 6.9,0 12.5,-5.6 12.5,-12.5 v -18.3 c 0,-6.9 -5.6,-12.5 -12.5,-12.5 z"
             id="path151"
             inkscape:connector-curvature="0"
             style="fill:#10111a" />
        </g>
      </g>
      <g
         style="filter:url(#filter212)"
         transform="matrix(0.26458333,0,0,0.26458333,25.458445,86.697261)"
         id="g181">
        <path
           style="fill:#1a1a1a"
           inkscape:connector-curvature="0"
           id="path177"
           d="m 310.7,325.9 c -2.9,-3.5 -30.7,-1.7 -31.4,-1.3 -0.7,0.4 -14.3,12 -15.7,14 -1.4,2 -1.2,2.9 -1.2,2.9 0,0 -0.2,0.9 1.2,2.9 1.4,2 15,13.6 15.7,14 0.7,0.4 28.5,2.2 31.4,-1.3 2.9,-3.5 2.6,-15.6 2.6,-15.6 0,0 0.3,-12.1 -2.6,-15.6 z" />
        <path
           style="opacity:0.25"
           inkscape:connector-curvature="0"
           id="path179"
           d="m 274.9,328.3 c -4.3,3.7 -10.3,9 -11.2,10.3 -1.4,2 -1.2,2.9 -1.2,2.9 0,0 -0.2,0.9 1.2,2.9 0.9,1.3 6.9,6.6 11.2,10.3 2.1,-3.9 3.4,-8.4 3.4,-13.2 0,-4.8 -1.3,-9.3 -3.4,-13.2 z"
           enable-background="new    " />
      </g>
      <g
         style="filter:url(#filter206)"
         transform="matrix(0.26458333,0,0,0.26458333,-82.071527,78.713459)"
         id="g274">
        <g
           id="g270">
          <path
             id="path266"
             d="m 806.9,368.1 c -14.5,0 -26.3,-11.8 -26.3,-26.3 0,-14.5 11.8,-26.3 26.3,-26.3 14.5,0 26.3,11.8 26.3,26.3 0,14.5 -11.8,26.3 -26.3,26.3 z"
             inkscape:connector-curvature="0"
             style="fill:#1a1a1a" />
          <path
             id="path268"
             d="m 806.9,316.6 c 13.9,0 25.3,11.3 25.3,25.3 0,14 -11.3,25.2 -25.3,25.2 -14,0 -25.3,-11.3 -25.3,-25.3 0,-14 11.4,-25.2 25.3,-25.2 m 0,-2 c -15,0 -27.3,12.2 -27.3,27.3 0,15.1 12.2,27.3 27.3,27.3 15.1,0 27.3,-12.2 27.3,-27.3 0,-15.1 -12.3,-27.3 -27.3,-27.3 z"
             inkscape:connector-curvature="0"
             style="fill:#0f0f0f" />
        </g>
        <path
           id="path272"
           d="m 806.9,323 c -10.4,0 -18.9,8.5 -18.9,18.9 0,10.4 8.5,18.9 18.9,18.9 10.4,0 18.9,-8.5 18.9,-18.9 0,-10.4 -8.4,-18.9 -18.9,-18.9 z m 0,34.9 c -8.9,0 -16,-7.2 -16,-16 0,-8.9 7.2,-16 16,-16 8.8,0 16,7.2 16,16 0.1,8.9 -7.1,16 -16,16 z"
           inkscape:connector-curvature="0"
           style="fill:#ff6666" />
      </g>
      <g
         style="filter:url(#filter200)"
         transform="matrix(0.26458333,0,0,0.26458333,-82.600697,63.738042)"
         id="g284">
        <g
           id="g280">
          <path
             id="path276"
             d="m 749.3,425.7 c -14.5,0 -26.3,-11.8 -26.3,-26.3 0,-14.5 11.8,-26.3 26.3,-26.3 14.5,0 26.3,11.8 26.3,26.3 0,14.5 -11.8,26.3 -26.3,26.3 z"
             inkscape:connector-curvature="0"
             style="fill:#1a1a1a" />
          <path
             id="path278"
             d="m 749.3,374.2 c 13.9,0 25.3,11.3 25.3,25.3 0,14 -11.3,25.3 -25.3,25.3 -14,0 -25.3,-11.3 -25.3,-25.3 0,-14 11.4,-25.3 25.3,-25.3 m 0,-2 c -15,0 -27.3,12.2 -27.3,27.3 0,15 12.2,27.3 27.3,27.3 15.1,0 27.3,-12.2 27.3,-27.3 0,-15 -12.2,-27.3 -27.3,-27.3 z"
             inkscape:connector-curvature="0"
             style="fill:#0f0f0f" />
        </g>
        <polygon
           id="polygon282"
           points="749.3,401.5 761.7,413.8 763.7,411.8 751.3,399.5 763.7,387.1 761.7,385.1 749.3,397.5 737,385.1 735,387.1 747.3,399.5 735,411.8 737,413.8 "
           style="fill:#7cb2e8" />
      </g>
      <g
         style="filter:url(#filter194)"
         transform="matrix(0.26458333,0,0,0.26458333,-67.360697,63.976167)"
         id="g294">
        <g
           id="g290">
          <path
             id="path286"
             d="m 691.8,368.1 c -14.5,0 -26.3,-11.8 -26.3,-26.3 0,-14.5 11.8,-26.3 26.3,-26.3 14.5,0 26.3,11.8 26.3,26.3 0,14.5 -11.9,26.3 -26.3,26.3 z"
             inkscape:connector-curvature="0"
             style="fill:#1a1a1a" />
          <path
             id="path288"
             d="m 691.7,316.6 c 13.9,0 25.3,11.3 25.3,25.3 0,14 -11.3,25.2 -25.3,25.2 -14,0 -25.3,-11.3 -25.3,-25.3 0,-14 11.4,-25.2 25.3,-25.2 m 0,-2 c -15,0 -27.3,12.2 -27.3,27.3 0,15.1 12.2,27.3 27.3,27.3 15.1,0 27.3,-12.2 27.3,-27.3 0,-15.1 -12.2,-27.3 -27.3,-27.3 z"
             inkscape:connector-curvature="0"
             style="fill:#0f0f0f" />
        </g>
        <path
           id="path292"
           d="m 703.3,327.5 h -23 -2.8 v 2.8 23 2.8 h 2.8 23 2.8 v -2.8 -23 -2.8 z m 0,25.9 h -23 v -23 h 23 z"
           inkscape:connector-curvature="0"
           style="fill:#ff69f8" />
      </g>
      <g
         style="filter:url(#filter188)"
         transform="matrix(0.26458333,0,0,0.26458333,-66.831527,78.792834)"
         id="g304">
        <g
           id="g300">
          <path
             id="path296"
             d="m 749.3,310.6 c -14.5,0 -26.3,-11.8 -26.3,-26.3 0,-14.5 11.8,-26.3 26.3,-26.3 14.5,0 26.3,11.8 26.3,26.3 0,14.5 -11.8,26.3 -26.3,26.3 z"
             inkscape:connector-curvature="0"
             style="fill:#1a1a1a" />
          <path
             id="path298"
             d="m 749.3,259.1 c 13.9,0 25.3,11.3 25.3,25.3 0,14 -11.3,25.3 -25.3,25.3 -14,0 -25.3,-11.3 -25.3,-25.3 0,-14 11.4,-25.3 25.3,-25.3 m 0,-2 c -15,0 -27.3,12.2 -27.3,27.3 0,15.1 12.2,27.3 27.3,27.3 15.1,0 27.3,-12.2 27.3,-27.3 0,-15.1 -12.2,-27.3 -27.3,-27.3 z"
             inkscape:connector-curvature="0"
             style="fill:#0f0f0f" />
        </g>
        <path
           id="path302"
           d="m 765.3,292.3 -16,-27.6 -16,27.6 -1.6,2.8 h 3.3 14.3 14.3 3.3 z m -16,0 h -12.7 l 12.7,-21.9 12.7,21.9 z"
           inkscape:connector-curvature="0"
           style="fill:#40e2a0" />
      </g>
      <g
         style="filter:url(#filter182)"
         transform="matrix(0.26458333,0,0,0.26458333,-102.59989,121.62226)"
         id="g356">
        <g
           id="g354">
          <g
             id="g344">
            <path
               d="m 794.2,187.9 c 0,0 -32.7,-3.2 -50.6,-3.2 -17.9,0 -48.4,2.4 -48.4,2.4 0,0 3.1,-44.7 4.8,-52 1.6,-7.3 7.7,-21.3 16.9,-27.9 9.2,-6.6 11.9,-10.1 22.7,-10.1 10.8,0 25.4,6.4 34.6,21.4 9.3,15 20,69.4 20,69.4 z"
               id="path340"
               inkscape:connector-curvature="0"
               style="fill:#121212" />
            <path
               d="m 695.7,180.3 c 0,0 26.1,-4.4 49,-4.4 22.8,0 47.9,4.4 47.9,4.4 1,4.7 1.6,7.6 1.6,7.6 0,0 -32.7,-3.2 -50.6,-3.2 -17.9,0 -48.4,2.4 -48.4,2.4 0,0 0.2,-2.7 0.5,-6.8 z"
               id="path342"
               inkscape:connector-curvature="0"
               style="fill:#0a0a0a" />
          </g>
          <g
             id="g352"
             style="opacity:0.07999998">
            <g
               id="g348">
              <path
                 d="m 745.7,162.8 c -2.1,1.7 -3.2,2.6 -3.2,2.6 -1.2,1.2 -1.9,2.7 -2,4.5 h 9.8 v -2.6 H 744 c 0.3,-0.5 1,-1.2 2.1,-1.9 1.4,-0.9 2.3,-1.6 2.7,-2.1 0.9,-1 1.3,-2.1 1.3,-3.3 0,-1.4 -0.5,-2.5 -1.4,-3.3 -0.9,-0.8 -2.1,-1.2 -3.5,-1.2 -3.1,0 -4.7,1.7 -4.7,5 h 2.7 c 0,-1.8 0.7,-2.7 2.1,-2.7 1.3,0 2,0.7 2,2.1 0.2,1.1 -0.4,2 -1.6,2.9 z"
                 id="path346"
                 inkscape:connector-curvature="0"
                 style="fill:#ffffff" />
            </g>
            <path
               d="m 728.1,164.3 h 3 c 1.5,0 2.3,0.6 2.4,1.9 0.1,1.2 0.2,2.5 0.3,3.8 h 3.3 v -0.4 c -0.5,-0.2 -0.7,-0.7 -0.7,-1.5 0,-0.2 0,-0.4 0.1,-0.8 v -0.7 c 0,-1.7 -0.6,-2.9 -1.8,-3.5 1.4,-0.5 2.2,-1.6 2.2,-3.4 0,-1.3 -0.4,-2.3 -1.3,-3 -0.8,-0.7 -1.9,-1 -3.2,-1 h -7.3 V 170 h 3 z m 0,-6.2 h 3.7 c 1.4,0 2.1,0.6 2.1,1.9 0,1.3 -0.8,1.9 -2.3,1.9 h -3.5 z"
               id="path350"
               inkscape:connector-curvature="0"
               style="fill:#ffffff" />
          </g>
        </g>
      </g>
      <g
         transform="matrix(0.26458333,0,0,0.26458333,0.09151769,121.62226)"
         id="g336"
         style="filter:url(#filter176)">
        <g
           id="g334">
          <path
             d="m 205.8,207 c 0,-0.8 0.4,-1.5 1.1,-1.9 4.5,-2.9 23.4,-13.6 51.5,-13.6 26.9,0 41.1,5.9 45.1,8 0.8,0.4 1.2,1.2 1.2,2 0,0 -9.8,-2.9 -47.5,-2.9 -37.7,0 -51.4,8.4 -51.4,8.4 z"
             id="path330"
             inkscape:connector-curvature="0"
             style="fill:#0a0a0a" />
          <path
             d="m 205.9,213.9 v 0 -6.9 c 0,0 13.7,-8.4 51.4,-8.4 37.8,0 47.5,2.9 47.5,2.9 v 11 0 c -7.7,-1.3 -21.2,-2.6 -44.1,-2.6 -28.5,0.1 -45.9,2.4 -54.8,4 z"
             id="path332"
             inkscape:connector-curvature="0"
             style="fill:#121212" />
        </g>
      </g>
      <g
         style="filter:url(#filter1459)"
         id="g1427">
        <g
           style="filter:url(#filter176)"
           id="g362"
           transform="matrix(0.26458333,0,0,0.26458333,0.09151769,121.62226)">
          <path
             style="fill:#121212"
             inkscape:connector-curvature="0"
             id="path358"
             d="m 205.8,187.9 c 0,0 32.7,-3.2 50.6,-3.2 17.9,0 48.3,2.4 48.3,2.4 0,0 -3.1,-44.7 -4.8,-52 -1.6,-7.3 -7.7,-21.3 -16.9,-27.9 -9.1,-6.7 -11.8,-10.1 -22.6,-10.1 -10.8,0 -25.4,6.4 -34.6,21.4 -9.2,15 -20,69.4 -20,69.4 z" />
          <path
             style="fill:#0a0a0a"
             inkscape:connector-curvature="0"
             id="path360"
             d="m 304.3,180.3 c 0,0 -26.1,-4.4 -49,-4.4 -22.8,0 -47.9,4.4 -47.9,4.4 -1,4.7 -1.6,7.6 -1.6,7.6 0,0 32.7,-3.2 50.6,-3.2 17.9,0 48.3,2.4 48.3,2.4 0,0 -0.1,-2.7 -0.4,-6.8 z" />
        </g>
        <g
           style="opacity:0.07999998;filter:url(#filter176)"
           id="g370"
           transform="matrix(0.26458333,0,0,0.26458333,0.09151769,121.62226)">
          <g
             id="g366">
            <path
               style="fill:#ffffff"
               inkscape:connector-curvature="0"
               id="path364"
               d="m 270.3,162.8 c -2.1,1.7 -3.2,2.6 -3.2,2.6 -1.2,1.2 -1.9,2.7 -2,4.5 h 9.8 v -2.6 h -6.2 c 0.3,-0.5 1,-1.2 2.1,-1.9 1.4,-0.9 2.3,-1.6 2.7,-2.1 0.9,-1 1.3,-2.1 1.3,-3.3 0,-1.4 -0.5,-2.5 -1.4,-3.3 -0.9,-0.8 -2.1,-1.2 -3.5,-1.2 -3.1,0 -4.7,1.7 -4.7,5 h 2.7 c 0,-1.8 0.7,-2.7 2.1,-2.7 1.3,0 2,0.7 2,2.1 0.1,1.1 -0.5,2 -1.7,2.9 z" />
          </g>
          <polygon
             style="fill:#ffffff"
             id="polygon368"
             points="261.8,167.3 254.8,167.3 254.8,155.6 251.7,155.6 251.7,169.9 261.8,169.9 " />
        </g>
      </g>
    </g>
  </g>
</svg>
